<svg xmlns="http://www.w3.org/2000/svg" width="24" height="24" viewBox="0 0 24 24"><defs><style>.a{fill:#fff;stroke:#707070;opacity:0;}.b{fill:#3d8f85;}.c{stroke:none;}.d{fill:none;}</style></defs><g transform="translate(-336 -466)"><g class="a" transform="translate(336 466)"><rect class="c" width="24" height="24"/><rect class="d" x="0.5" y="0.5" width="23" height="23"/></g><g transform="translate(338 468)"><path class="b" d="M10,0A10,10,0,1,0,20,10,10.011,10.011,0,0,0,10,0Zm5.575,6.665L9.421,13.588a.77.77,0,0,1-1.056.09L4.519,10.6A.769.769,0,0,1,5.48,9.4l3.276,2.62,5.669-6.377a.769.769,0,0,1,1.15,1.023Z"/></g></g></svg>